<svg id="Layer_1" data-name="Layer 1" xmlns="http://www.w3.org/2000/svg" viewBox="0 0 30.92 30.53"><defs><clipPath id="clip-path" transform="translate(-.5 -.74)"><path fill="none" d="M.5.58h30.92v30.83H.5z"/></clipPath><style>.cls-3{fill:#fbaeae}.cls-4{fill:#f7f7f1}</style></defs><g clip-path="url(#clip-path)"><path class="cls-3" d="M.9 15.58v-.32a1.93 1.93 0 000 .53v-.21m29.22-5.79l.07.21-.07-.17m-.02-.04c-.1-.08-.1-.1-.1.02zm.5 1.36l-.22-.69c.09 0 .14 0 .27.4a2.8 2.8 0 00-.28-.68l.05.16a4.41 4.41 0 01-.23-.34c.24.6.15 1.14.41 1.2m.03.23l.16.34c.08.17.15.35.15.35a3.64 3.64 0 00-.16-.53c-.06-.17-.13-.27-.16-.15m.29 1.33c0 .14.08.36.11.44a1.37 1.37 0 00-.27-.82 2.61 2.61 0 00.11.39c0-.22 0-.15 0 0m-.1-.39c0-.07 0-.13-.05-.2s0 .15.05.2m.31 2.3v.27zm-9.57 15.6l-.26.08h.26m-10.6 0" transform="translate(-.5 -.74)"/><path class="cls-3" d="M31.4 15.77c-.09.49-.11.32-.11 0a9.11 9.11 0 00-.06-1v1.62a8.37 8.37 0 010 .86v.9l-.08.62v.28h-.13a1.85 1.85 0 01-.22 1.19c-.2.52-.41 1-.22.85-.17.48-.36.62-.4.53s0 .08-.07.21l-.17.45c-.06.17-.13.33-.18.45l-.09.2c-.12.11-.11-.21 0-.35a3.9 3.9 0 00.19-.43c.06-.16.13-.32.19-.49a4.92 4.92 0 01.41-.9c.07-.45-.27.35 0-.6a9.44 9.44 0 00.61-2.53c.1-.85.12-1.65.16-2.24 0 .27 0 .54-.12.2v-.85c0-.17 0-.31-.07-.44s-.07-.25-.1-.36a2.5 2.5 0 01-.11-.67 1 1 0 000 .59 8.14 8.14 0 010 1 1.06 1.06 0 01-.1-.23q0-.37-.06-.74a2 2 0 00-.15-1 10.4 10.4 0 00-.42-1.53l-.1-.18q-.17-.59-.4-1.16a1 1 0 00-.07-.16 12.57 12.57 0 00-.64-1.35A18.43 18.43 0 0027.19 6a11.47 11.47 0 00-1.92-1.84 23.32 23.32 0 00-2.1-1.33l-.27-.15-.31-.2-.29-.13-.3-.14a5 5 0 01.47.24l-.67-.31a11.93 11.93 0 00-1.16-.52c-.64-.22-1.2-.39-1.4-.51-.49 0 .39.22 1.14.46A16.81 16.81 0 0017.73 1h-.21.32a2.15 2.15 0 01.8.14c.23 0 .16-.06-.11-.15l-.37-.06-.42-.06c-.29 0-.59-.07-.86-.1a5.52 5.52 0 00-.69 0 .52.52 0 00-.26 0L15.47.7l-.22.06-.25.09h-.17.18c-.41 0-.83.06-1.23.12a8.2 8.2 0 00-1.91.46h.21-.21l-.19.14c-.31 0 .16-.11.26-.2l-.53.15-.44.16a1.67 1.67 0 00-.54.29l.22-.08.48-.15.54-.15a.15.15 0 00-.08.11 8.78 8.78 0 01-.87.4l-1.42.46L8.27 3l.06-.07.23-.11c.44-.27.98-.52 1.21-.6h-.14l-.31.09-.45.19-.13.1-.13.11a.65.65 0 01-.22.08l-.19.01v.05l-.1.06-.25.17a4.65 4.65 0 00-1.48.76 9.61 9.61 0 00-1.17.86 3.69 3.69 0 00-.54.66l-.06.07a2 2 0 00-.25.45.55.55 0 00-.08.18 2.33 2.33 0 00.44-.3l.63-.5.13-.1-.1.1.05-.06.58-.42c.24-.16.46-.32.65-.42l.2-.06A14.67 14.67 0 003.2 8.48l-.2.44v-.09c0-.16-.1-.31-.38.27.37-.55.3 0 .07.46l-.16.24c0-.15 0-.14-.09 0a2.24 2.24 0 00-.27.55A2.78 2.78 0 012.3 10l.11-.16c.06-.07.09-.09.11-.05l-.22.51a.37.37 0 000-.12 1 1 0 00-.38.59l-.25.59c-.07.19-.14.37-.2.5a.82.82 0 000 .64 1.09 1.09 0 00-.17.34 1.26 1.26 0 01-.16.34c0 .25 0 .47-.07.68-.07.37-.14.71-.14.71v-.06c0 .18-.05.35-.06.55s0 .13 0 .19v.47a.07.07 0 010 .06v.07-.06a5.07 5.07 0 01.06.64v.04a7.15 7.15 0 01.14-.94l.19-.53v.71a.27.27 0 000 .12v.28a1.68 1.68 0 00-.16.33c0 .09-.06.19-.08.31v-.06.19A6 6 0 001 19.07a9.72 9.72 0 00.3 1.21 12.82 12.82 0 00.54 1.88c.36.57.85 1.35 1.42 2.12L3 23.91c.21.32.48.7.73 1-.08-.13-.14-.24-.21-.35l.24.3.34.48.1.1.1.1.22.2.26.26c.23.23.44.44.65.63l-.19-.15c-.24-.21-.53-.41-.48-.24l.24.21.19.14.11.06c-.25-.09.41.51.23.45l.06.05.16.13c.14.11.31.26.5.39l.52.33.23.19v.11l-.16-.15-.13-.15c-.28-.07-.11.07.19.26l.5.32a2.25 2.25 0 01.42.32l.06-.07.62.44.25.17.2.14.21.13.35.19h.41l-.53-.2a.88.88 0 01-.51-.31l.31.13.33.13.34.14.36.21.36.12.36.1.36.09.34.06H11a2.2 2.2 0 01.56.2l.44.2a4.9 4.9 0 00.6.16l-.37-.12-.23-.09h-.11a3.38 3.38 0 01.63.06l.81.15h.44l.42.07a5.89 5.89 0 00.81 0 1.28 1.28 0 01-.59-.11 2.45 2.45 0 01.58 0l.71.11a2.54 2.54 0 01-1.24.11 1.44 1.44 0 00-.95 0 6.72 6.72 0 00.85.07h.77l.68-.06a4.11 4.11 0 01.59 0l-.29.07-.2.05h-.09.56-.15a1.27 1.27 0 01.51-.06 5 5 0 00.67 0l-.29.16h.42l.46-.16h-.11a28.33 28.33 0 003.4-.79h-.09l-.35.09a5.48 5.48 0 01.74-.28 2.2 2.2 0 00-.52.12.7.7 0 01-.4.07l1.14-.39.51-.16.31-.11.37-.12c.08-.1-.76.15.06-.33 0 .15.74-.22.24.19a5.72 5.72 0 001.08-.7 2.58 2.58 0 01-.28.17c-.22.05.26-.25.43-.39a3.88 3.88 0 001.09-.55l.15-.14.32-.31c.24-.22.46-.47.46-.47l.33-.34.32-.35c.22-.22.42-.47.62-.69s.37-.46.54-.68.3-.44.41-.63.15-.46-.22.1a4.09 4.09 0 01.45-.72c.17-.26.37-.51.52-.74v.23l-.06.23a21 21 0 001.11-2.25 9.38 9.38 0 00.63-2.31l-.2.24a14.32 14.32 0 00.36-3.39M8.14 3L8 3.05 8.14 3m-6 7.69l.08-.13L2 11a.44.44 0 01.1-.37m11.13 20h.1-.07m4.23.09l.39-.06-.39.06M.8 15.18c0 .2 0 .41-.08.22a.79.79 0 010 .27c.07.24.11-.15.14-.64a.44.44 0 100 .15m-.14-.1" transform="translate(-.5 -.74)"/><path class="cls-3" d="M.78 14.48a8 8 0 01-.25 1 4.75 4.75 0 010-.5c0-.15 0-.24.08-.17v-.45 1.42a1.53 1.53 0 01.22-.7v-.6m.29-2.4a.61.61 0 00-.12.23.52.52 0 00.12-.23m.07.08s0 .06.08 0a3.92 3.92 0 00.21-.5c-.12.26-.23.52-.26.38l.09-.28c0-.07-.09.07-.16.24v.1s.05 0 .07.08M9.5 2h.07l.12-.08L9.5 2m1.31-.45h-.15l-.32.08-.34.12h-.15l-.18.12a2.18 2.18 0 01.52-.15 3.1 3.1 0 00.59-.21m-2.16.98c.38-.18.74-.36 1.06-.49h-.11a18.79 18.79 0 00-2.1 1.09l1.16-.59" transform="translate(-.5 -.74)"/><path class="cls-4" d="M11.17 9.72V5.16h1l1.43 3.53L15 5.16h1v4.56h-.68l.02-3.84-1.52 3.84h-.47l-1.52-3.84.02 3.84h-.68zm6.78-1.62l-1.43-2.94h.79l1.01 2.26 1-2.26h.79L18.68 8.1v1.62h-.73V8.1z"/><path class="cls-4" d="M4.82 11.94H6.5a1.78 1.78 0 011.11.31 1 1 0 01.41.89 1 1 0 01-.53.92 1.05 1.05 0 01.75 1.06 1.31 1.31 0 01-.42 1 1.91 1.91 0 01-1.5.39h-1.5v-4.57zM6 13.67h.4a.83.83 0 00.31 0 .32.32 0 00.19-.32.3.3 0 00-.18-.35.81.81 0 00-.32 0H6v.71zm0 1.81h.54a.87.87 0 00.35-.06.38.38 0 00.23-.42.34.34 0 00-.22-.35 1 1 0 00-.36 0H6v.83z" transform="translate(-.5 -.74)"/><path class="cls-4" d="M8.32 11.2h2.59v1.02H9.49v.71h1.38v1.03H9.49v.78h1.42v1.03H8.32V11.2z"/><path class="cls-4" d="M13 16.5h-1.27l1.81-4.56h1l1.76 4.56H15l-.22-.66H13.2zm1-3.18l-.49 1.59h1zm3.68-1.38v2.76a1.48 1.48 0 00.08.55.52.52 0 00.51.32.49.49 0 00.51-.3 1.51 1.51 0 00.07-.57v-2.76H20v2.76a1.74 1.74 0 01-.46 1.4 1.71 1.71 0 01-1.28.49A1.85 1.85 0 0117 16.1a1.74 1.74 0 01-.46-1.41v-2.75h1.17z" transform="translate(-.5 -.74)"/><path class="cls-4" d="M20.89 12.22h-.9V11.2h2.97v1.02h-.9v3.55h-1.17v-3.55zm3.54 1.89l-1.36-2.91h1.27l.68 1.83.68-1.83h1.26l-1.36 2.91v1.66h-1.17v-1.66z"/><path d="M8.15 19.79A1.87 1.87 0 0110 18a1.8 1.8 0 011.88 1.87 1.88 1.88 0 01-1.13 1.7 2.43 2.43 0 01-.75 4.71 2.47 2.47 0 01-1.91-.91 2.44 2.44 0 01-.53-1.56h.29A2.13 2.13 0 0010 26a2.06 2.06 0 002.12-2.14 2.17 2.17 0 00-2.29-2.16H9.4v-.3h.42a1.56 1.56 0 001.77-1.57 1.48 1.48 0 00-1.52-1.56 1.57 1.57 0 00-1.6 1.53h-.32zM17 18.11l-1.68 2.51-.42.63a2.43 2.43 0 011.33-.41 2.62 2.62 0 012.62 2.7 2.69 2.69 0 01-2.65 2.74 2.56 2.56 0 01-2-.89 2.76 2.76 0 01-.63-1.74 3.33 3.33 0 01.69-2l2.44-3.54h.3zm-3.14 5.53A2.26 2.26 0 0016.14 26a2.34 2.34 0 002.34-2.42 2.32 2.32 0 00-2.28-2.44 2.38 2.38 0 00-2.37 2.51zm10.46-5.53v.29H21l-.59 3a2.67 2.67 0 014.39 2.09 2.69 2.69 0 01-5.37.26h.33a2.37 2.37 0 102.36-2.69 2.3 2.3 0 00-1.84.93l-.28-.04.74-3.84h3.61z" transform="translate(-.5 -.74)" fill="#010102"/></g></svg>